<svg xmlns="http://www.w3.org/2000/svg" viewBox="0 0 96 96" width="96" height="96" role="img" aria-label="custom-apps">
  <defs>
    <linearGradient id="g" gradientUnits="userSpaceOnUse" x1="0" y1="0" x2="24" y2="24"><stop offset="0" stop-color="#60A5FA"/><stop offset="1" stop-color="#A78BFA"/></linearGradient>
    <linearGradient id="edge" x1="0" y1="0" x2="1" y2="1"><stop offset="0" stop-color="#3B82F6" stop-opacity=".55"/><stop offset="1" stop-color="#8B5CF6" stop-opacity=".55"/></linearGradient>
  </defs>
  <rect width="96" height="96" rx="24" fill="#12141F"/>
  <rect x=".75" y=".75" width="94.5" height="94.5" rx="23.5" fill="none" stroke="url(#edge)" stroke-width="1.5"/>
  <g transform="translate(26 26) scale(1.8333)" fill="none" stroke="url(#g)" stroke-width="1.7" stroke-linecap="round" stroke-linejoin="round">
    <path d="M8 4c-2 0-3 1-3 3v3c0 1-1 2-2 2 1 0 2 1 2 2v3c0 2 1 3 3 3"/><path d="M16 4c2 0 3 1 3 3v3c0 1 1 2 2 2-1 0-2 1-2 2v3c0 2-1 3-3 3"/>
  </g>
</svg>
